<mxfile host="Electron" modified="2025-04-14T16:15:12.694Z" agent="Mozilla/5.0 (Windows NT 10.0; Win64; x64) AppleWebKit/537.36 (KHTML, like Gecko) draw.io/21.6.8 Chrome/114.0.5735.289 Electron/25.5.0 Safari/537.36" etag="BseHeIBmO9zbP64lN1lx" version="21.6.8" type="device">
  <diagram name="Page-1" id="ss8yatf7kh0p_a2BNOj6">
    <mxGraphModel dx="1674" dy="836" grid="1" gridSize="10" guides="1" tooltips="1" connect="1" arrows="1" fold="1" page="1" pageScale="1" pageWidth="850" pageHeight="1100" math="0" shadow="0">
      <root>
        <mxCell id="0" />
        <mxCell id="1" parent="0" />
        <mxCell id="V5TCObuT0yHq0rwhjd7n-30" value="a2a_registry MCP Tools" style="whiteSpace=wrap;strokeWidth=2;verticalAlign=top;" vertex="1" parent="1">
          <mxGeometry x="472" y="582" width="414" height="84" as="geometry" />
        </mxCell>
        <mxCell id="V5TCObuT0yHq0rwhjd7n-31" value="MCP: get_agent()" style="whiteSpace=wrap;strokeWidth=2;" vertex="1" parent="1">
          <mxGeometry x="516" y="607" width="140" height="34" as="geometry" />
        </mxCell>
        <mxCell id="V5TCObuT0yHq0rwhjd7n-32" value="MCP: list_agents()" style="whiteSpace=wrap;strokeWidth=2;" vertex="1" parent="1">
          <mxGeometry x="706" y="607" width="146" height="34" as="geometry" />
        </mxCell>
        <mxCell id="V5TCObuT0yHq0rwhjd7n-33" value="webcrawler_agent MCP Tools" style="whiteSpace=wrap;strokeWidth=2;verticalAlign=top;" vertex="1" parent="1">
          <mxGeometry x="906" y="582" width="246" height="84" as="geometry" />
        </mxCell>
        <mxCell id="V5TCObuT0yHq0rwhjd7n-34" value="MCP: list_candidates()" style="whiteSpace=wrap;strokeWidth=2;" vertex="1" parent="1">
          <mxGeometry x="941" y="607" width="176" height="34" as="geometry" />
        </mxCell>
        <mxCell id="V5TCObuT0yHq0rwhjd7n-35" value="webservice_agent MCP Tools" style="whiteSpace=wrap;strokeWidth=2;verticalAlign=top;" vertex="1" parent="1">
          <mxGeometry x="602" y="276" width="505" height="84" as="geometry" />
        </mxCell>
        <mxCell id="V5TCObuT0yHq0rwhjd7n-36" value="MCP: search_candidates()" style="whiteSpace=wrap;strokeWidth=2;" vertex="1" parent="1">
          <mxGeometry x="811" y="301" width="201" height="34" as="geometry" />
        </mxCell>
        <mxCell id="V5TCObuT0yHq0rwhjd7n-37" value="fake_auth_service MCP Tools" style="whiteSpace=wrap;strokeWidth=2;verticalAlign=top;" vertex="1" parent="1">
          <mxGeometry x="20" y="582" width="284" height="84" as="geometry" />
        </mxCell>
        <mxCell id="V5TCObuT0yHq0rwhjd7n-38" value="MCP: validate_credentials()" style="whiteSpace=wrap;strokeWidth=2;" vertex="1" parent="1">
          <mxGeometry x="55" y="607" width="214" height="34" as="geometry" />
        </mxCell>
        <mxCell id="V5TCObuT0yHq0rwhjd7n-39" value="auth_agent MCP Tools" style="whiteSpace=wrap;strokeWidth=2;verticalAlign=top;" vertex="1" parent="1">
          <mxGeometry x="76" y="276" width="381" height="84" as="geometry" />
        </mxCell>
        <mxCell id="V5TCObuT0yHq0rwhjd7n-40" value="MCP: login()" style="whiteSpace=wrap;strokeWidth=2;" vertex="1" parent="1">
          <mxGeometry x="111" y="301" width="103" height="34" as="geometry" />
        </mxCell>
        <mxCell id="V5TCObuT0yHq0rwhjd7n-41" value="MCP: verify_token()" style="whiteSpace=wrap;strokeWidth=2;" vertex="1" parent="1">
          <mxGeometry x="264" y="301" width="158" height="34" as="geometry" />
        </mxCell>
        <mxCell id="V5TCObuT0yHq0rwhjd7n-42" value="Internal Agents (MCP-backed)" style="whiteSpace=wrap;strokeWidth=2;verticalAlign=top;" vertex="1" parent="1">
          <mxGeometry x="54" y="429" width="1085" height="84" as="geometry" />
        </mxCell>
        <mxCell id="V5TCObuT0yHq0rwhjd7n-43" value="fake_auth_service" style="whiteSpace=wrap;strokeWidth=2;" vertex="1" parent="1">
          <mxGeometry x="89" y="454" width="146" height="34" as="geometry" />
        </mxCell>
        <mxCell id="V5TCObuT0yHq0rwhjd7n-44" value="webcrawler_agent" style="whiteSpace=wrap;strokeWidth=2;" vertex="1" parent="1">
          <mxGeometry x="955" y="454" width="149" height="34" as="geometry" />
        </mxCell>
        <mxCell id="V5TCObuT0yHq0rwhjd7n-45" value="dbservice_agent" style="whiteSpace=wrap;strokeWidth=2;" vertex="1" parent="1">
          <mxGeometry x="730" y="454" width="133" height="34" as="geometry" />
        </mxCell>
        <mxCell id="V5TCObuT0yHq0rwhjd7n-46" value="a2a_registry" style="whiteSpace=wrap;strokeWidth=2;" vertex="1" parent="1">
          <mxGeometry x="534" y="454" width="104" height="34" as="geometry" />
        </mxCell>
        <mxCell id="V5TCObuT0yHq0rwhjd7n-47" value="User-Facing Agents" style="whiteSpace=wrap;strokeWidth=2;verticalAlign=top;" vertex="1" parent="1">
          <mxGeometry x="101" y="123" width="918" height="84" as="geometry" />
        </mxCell>
        <mxCell id="V5TCObuT0yHq0rwhjd7n-48" value="auth_agent" style="whiteSpace=wrap;strokeWidth=2;" vertex="1" parent="1">
          <mxGeometry x="298" y="148" width="97" height="34" as="geometry" />
        </mxCell>
        <mxCell id="V5TCObuT0yHq0rwhjd7n-49" value="webservice_agent" style="whiteSpace=wrap;strokeWidth=2;" vertex="1" parent="1">
          <mxGeometry x="839" y="148" width="145" height="34" as="geometry" />
        </mxCell>
        <mxCell id="V5TCObuT0yHq0rwhjd7n-50" value="User / Swagger UI" style="whiteSpace=wrap;strokeWidth=2;" vertex="1" parent="1">
          <mxGeometry x="552" y="20" width="144" height="34" as="geometry" />
        </mxCell>
        <mxCell id="V5TCObuT0yHq0rwhjd7n-51" value="login (JSON-RPC 2.0)" style="curved=1;startArrow=none;endArrow=block;exitX=0.0013834635416666667;exitY=0.8908149690554688;entryX=0.4934358891752577;entryY=0;rounded=0;" edge="1" parent="1" source="V5TCObuT0yHq0rwhjd7n-50" target="V5TCObuT0yHq0rwhjd7n-48">
          <mxGeometry relative="1" as="geometry">
            <Array as="points">
              <mxPoint x="346" y="89" />
            </Array>
          </mxGeometry>
        </mxCell>
        <mxCell id="V5TCObuT0yHq0rwhjd7n-52" value="MCP call" style="curved=1;startArrow=none;endArrow=block;exitX=-0.004147873711340206;exitY=0.8246956713250313;entryX=0.4974590412621359;entryY=0;rounded=0;" edge="1" parent="1" source="V5TCObuT0yHq0rwhjd7n-48" target="V5TCObuT0yHq0rwhjd7n-40">
          <mxGeometry relative="1" as="geometry">
            <Array as="points">
              <mxPoint x="162" y="207" />
            </Array>
          </mxGeometry>
        </mxCell>
        <mxCell id="V5TCObuT0yHq0rwhjd7n-53" value="A2A get_agent" style="curved=1;startArrow=none;endArrow=block;exitX=0.9910196520618557;exitY=0.8246956713250313;entryX=0.27799166165865385;entryY=0;rounded=0;" edge="1" parent="1" source="V5TCObuT0yHq0rwhjd7n-48" target="V5TCObuT0yHq0rwhjd7n-46">
          <mxGeometry relative="1" as="geometry">
            <Array as="points">
              <mxPoint x="529" y="207" />
              <mxPoint x="529" y="429" />
            </Array>
          </mxGeometry>
        </mxCell>
        <mxCell id="V5TCObuT0yHq0rwhjd7n-54" value="MCP call" style="curved=1;startArrow=none;endArrow=block;exitX=0.3380811083447799;exitY=1;entryX=0.37971739477040795;entryY=0;rounded=0;" edge="1" parent="1" source="V5TCObuT0yHq0rwhjd7n-46" target="V5TCObuT0yHq0rwhjd7n-31">
          <mxGeometry relative="1" as="geometry">
            <Array as="points">
              <mxPoint x="545" y="513" />
              <mxPoint x="545" y="582" />
            </Array>
          </mxGeometry>
        </mxCell>
        <mxCell id="V5TCObuT0yHq0rwhjd7n-55" value="A2A validate_credentials" style="curved=1;startArrow=none;endArrow=block;exitX=0.4974590412621359;exitY=1;entryX=0.5016320633561644;entryY=0;rounded=0;" edge="1" parent="1" source="V5TCObuT0yHq0rwhjd7n-40" target="V5TCObuT0yHq0rwhjd7n-43">
          <mxGeometry relative="1" as="geometry">
            <Array as="points" />
          </mxGeometry>
        </mxCell>
        <mxCell id="V5TCObuT0yHq0rwhjd7n-56" value="MCP call" style="curved=1;startArrow=none;endArrow=block;exitX=0.5016320633561644;exitY=1;entryX=0.5011134637850467;entryY=0;rounded=0;" edge="1" parent="1" source="V5TCObuT0yHq0rwhjd7n-43" target="V5TCObuT0yHq0rwhjd7n-38">
          <mxGeometry relative="1" as="geometry">
            <Array as="points" />
          </mxGeometry>
        </mxCell>
        <mxCell id="V5TCObuT0yHq0rwhjd7n-57" value="search_candidates" style="curved=1;startArrow=none;endArrow=block;exitX=0.9979112413194444;exitY=0.8780795462175739;entryX=0.49932650862068967;entryY=0;rounded=0;" edge="1" parent="1" source="V5TCObuT0yHq0rwhjd7n-50" target="V5TCObuT0yHq0rwhjd7n-49">
          <mxGeometry relative="1" as="geometry">
            <Array as="points">
              <mxPoint x="911" y="89" />
            </Array>
          </mxGeometry>
        </mxCell>
        <mxCell id="V5TCObuT0yHq0rwhjd7n-58" value="MCP call" style="curved=1;startArrow=none;endArrow=block;exitX=0.49932650862068967;exitY=1;entryX=0.49951414800995025;entryY=0;rounded=0;" edge="1" parent="1" source="V5TCObuT0yHq0rwhjd7n-49" target="V5TCObuT0yHq0rwhjd7n-36">
          <mxGeometry relative="1" as="geometry">
            <Array as="points" />
          </mxGeometry>
        </mxCell>
        <mxCell id="V5TCObuT0yHq0rwhjd7n-59" value="A2A get_agent" style="curved=1;startArrow=none;endArrow=block;exitX=0.05259347792288557;exitY=1;entryX=0.9006186684409337;entryY=0;rounded=0;" edge="1" parent="1" source="V5TCObuT0yHq0rwhjd7n-36" target="V5TCObuT0yHq0rwhjd7n-46">
          <mxGeometry relative="1" as="geometry">
            <Array as="points">
              <mxPoint x="689" y="360" />
              <mxPoint x="689" y="429" />
            </Array>
          </mxGeometry>
        </mxCell>
        <mxCell id="V5TCObuT0yHq0rwhjd7n-60" value="MCP call" style="curved=1;startArrow=none;endArrow=block;exitX=0.9973520132211539;exitY=0.9584178498985807;entryX=0.9032087053571428;entryY=0;rounded=0;" edge="1" parent="1" source="V5TCObuT0yHq0rwhjd7n-46" target="V5TCObuT0yHq0rwhjd7n-31">
          <mxGeometry relative="1" as="geometry">
            <Array as="points">
              <mxPoint x="726" y="513" />
              <mxPoint x="726" y="582" />
            </Array>
          </mxGeometry>
        </mxCell>
        <mxCell id="V5TCObuT0yHq0rwhjd7n-61" value="A2A list_candidates" style="curved=1;startArrow=none;endArrow=block;exitX=0.7373518845504622;exitY=1;entryX=0.5000655411073825;entryY=0;rounded=0;" edge="1" parent="1" source="V5TCObuT0yHq0rwhjd7n-36" target="V5TCObuT0yHq0rwhjd7n-44">
          <mxGeometry relative="1" as="geometry">
            <Array as="points">
              <mxPoint x="1030" y="360" />
            </Array>
          </mxGeometry>
        </mxCell>
        <mxCell id="V5TCObuT0yHq0rwhjd7n-62" value="MCP call" style="curved=1;startArrow=none;endArrow=block;exitX=0.5000655411073825;exitY=1;entryX=0.5028963955965909;entryY=0;rounded=0;" edge="1" parent="1" source="V5TCObuT0yHq0rwhjd7n-44" target="V5TCObuT0yHq0rwhjd7n-34">
          <mxGeometry relative="1" as="geometry">
            <Array as="points" />
          </mxGeometry>
        </mxCell>
      </root>
    </mxGraphModel>
  </diagram>
</mxfile>
